<?xml version='1.0' encoding='UTF-8'?>
<svg width="33mm" height="33mm" version="1.1" viewBox="0 0 33 33" xmlns="http://www.w3.org/2000/svg"><path d="M2,2H3V3H2zM3,2H4V3H3zM4,2H5V3H4zM5,2H6V3H5zM6,2H7V3H6zM7,2H8V3H7zM8,2H9V3H8zM11,2H12V3H11zM12,2H13V3H12zM15,2H16V3H15zM16,2H17V3H16zM17,2H18V3H17zM19,2H20V3H19zM21,2H22V3H21zM22,2H23V3H22zM24,2H25V3H24zM25,2H26V3H25zM26,2H27V3H26zM27,2H28V3H27zM28,2H29V3H28zM29,2H30V3H29zM30,2H31V3H30zM2,3H3V4H2zM8,3H9V4H8zM11,3H12V4H11zM15,3H16V4H15zM16,3H17V4H16zM19,3H20V4H19zM24,3H25V4H24zM30,3H31V4H30zM2,4H3V5H2zM4,4H5V5H4zM5,4H6V5H5zM6,4H7V5H6zM8,4H9V5H8zM12,4H13V5H12zM13,4H14V5H13zM14,4H15V5H14zM15,4H16V5H15zM17,4H18V5H17zM18,4H19V5H18zM20,4H21V5H20zM21,4H22V5H21zM24,4H25V5H24zM26,4H27V5H26zM27,4H28V5H27zM28,4H29V5H28zM30,4H31V5H30zM2,5H3V6H2zM4,5H5V6H4zM5,5H6V6H5zM6,5H7V6H6zM8,5H9V6H8zM11,5H12V6H11zM12,5H13V6H12zM13,5H14V6H13zM15,5H16V6H15zM18,5H19V6H18zM19,5H20V6H19zM21,5H22V6H21zM24,5H25V6H24zM26,5H27V6H26zM27,5H28V6H27zM28,5H29V6H28zM30,5H31V6H30zM2,6H3V7H2zM4,6H5V7H4zM5,6H6V7H5zM6,6H7V7H6zM8,6H9V7H8zM10,6H11V7H10zM11,6H12V7H11zM13,6H14V7H13zM19,6H20V7H19zM20,6H21V7H20zM21,6H22V7H21zM24,6H25V7H24zM26,6H27V7H26zM27,6H28V7H27zM28,6H29V7H28zM30,6H31V7H30zM2,7H3V8H2zM8,7H9V8H8zM12,7H13V8H12zM14,7H15V8H14zM15,7H16V8H15zM21,7H22V8H21zM22,7H23V8H22zM24,7H25V8H24zM30,7H31V8H30zM2,8H3V9H2zM3,8H4V9H3zM4,8H5V9H4zM5,8H6V9H5zM6,8H7V9H6zM7,8H8V9H7zM8,8H9V9H8zM10,8H11V9H10zM12,8H13V9H12zM14,8H15V9H14zM16,8H17V9H16zM18,8H19V9H18zM20,8H21V9H20zM22,8H23V9H22zM24,8H25V9H24zM25,8H26V9H25zM26,8H27V9H26zM27,8H28V9H27zM28,8H29V9H28zM29,8H30V9H29zM30,8H31V9H30zM10,9H11V10H10zM12,9H13V10H12zM14,9H15V10H14zM16,9H17V10H16zM17,9H18V10H17zM19,9H20V10H19zM21,9H22V10H21zM22,9H23V10H22zM4,10H5V11H4zM5,10H6V11H5zM8,10H9V11H8zM9,10H10V11H9zM10,10H11V11H10zM11,10H12V11H11zM12,10H13V11H12zM13,10H14V11H13zM17,10H18V11H17zM23,10H24V11H23zM24,10H25V11H24zM26,10H27V11H26zM3,11H4V12H3zM4,11H5V12H4zM5,11H6V12H5zM11,11H12V12H11zM12,11H13V12H12zM15,11H16V12H15zM16,11H17V12H16zM17,11H18V12H17zM18,11H19V12H18zM19,11H20V12H19zM20,11H21V12H20zM21,11H22V12H21zM22,11H23V12H22zM24,11H25V12H24zM25,11H26V12H25zM26,11H27V12H26zM27,11H28V12H27zM28,11H29V12H28zM30,11H31V12H30zM3,12H4V13H3zM6,12H7V13H6zM8,12H9V13H8zM9,12H10V13H9zM10,12H11V13H10zM11,12H12V13H11zM12,12H13V13H12zM14,12H15V13H14zM15,12H16V13H15zM17,12H18V13H17zM18,12H19V13H18zM19,12H20V13H19zM20,12H21V13H20zM22,12H23V13H22zM24,12H25V13H24zM25,12H26V13H25zM28,12H29V13H28zM29,12H30V13H29zM2,13H3V14H2zM3,13H4V14H3zM4,13H5V14H4zM11,13H12V14H11zM13,13H14V14H13zM14,13H15V14H14zM21,13H22V14H21zM22,13H23V14H22zM30,13H31V14H30zM2,14H3V15H2zM3,14H4V15H3zM5,14H6V15H5zM6,14H7V15H6zM8,14H9V15H8zM9,14H10V15H9zM13,14H14V15H13zM15,14H16V15H15zM16,14H17V15H16zM17,14H18V15H17zM21,14H22V15H21zM23,14H24V15H23zM25,14H26V15H25zM27,14H28V15H27zM28,14H29V15H28zM29,14H30V15H29zM30,14H31V15H30zM2,15H3V16H2zM3,15H4V16H3zM5,15H6V16H5zM6,15H7V16H6zM10,15H11V16H10zM11,15H12V16H11zM14,15H15V16H14zM15,15H16V16H15zM17,15H18V16H17zM18,15H19V16H18zM19,15H20V16H19zM20,15H21V16H20zM21,15H22V16H21zM24,15H25V16H24zM25,15H26V16H25zM27,15H28V16H27zM28,15H29V16H28zM30,15H31V16H30zM3,16H4V17H3zM4,16H5V17H4zM5,16H6V17H5zM6,16H7V17H6zM8,16H9V17H8zM11,16H12V17H11zM12,16H13V17H12zM14,16H15V17H14zM16,16H17V17H16zM18,16H19V17H18zM21,16H22V17H21zM22,16H23V17H22zM24,16H25V17H24zM25,16H26V17H25zM26,16H27V17H26zM27,16H28V17H27zM29,16H30V17H29zM30,16H31V17H30zM5,17H6V18H5zM6,17H7V18H6zM7,17H8V18H7zM9,17H10V18H9zM10,17H11V18H10zM11,17H12V18H11zM13,17H14V18H13zM15,17H16V18H15zM17,17H18V18H17zM18,17H19V18H18zM21,17H22V18H21zM23,17H24V18H23zM26,17H27V18H26zM27,17H28V18H27zM2,18H3V19H2zM3,18H4V19H3zM5,18H6V19H5zM6,18H7V19H6zM7,18H8V19H7zM8,18H9V19H8zM9,18H10V19H9zM12,18H13V19H12zM13,18H14V19H13zM14,18H15V19H14zM15,18H16V19H15zM17,18H18V19H17zM18,18H19V19H18zM19,18H20V19H19zM20,18H21V19H20zM22,18H23V19H22zM26,18H27V19H26zM27,18H28V19H27zM30,18H31V19H30zM3,19H4V20H3zM6,19H7V20H6zM9,19H10V20H9zM10,19H11V20H10zM12,19H13V20H12zM13,19H14V20H13zM15,19H16V20H15zM19,19H20V20H19zM20,19H21V20H20zM22,19H23V20H22zM25,19H26V20H25zM27,19H28V20H27zM28,19H29V20H28zM2,20H3V21H2zM4,20H5V21H4zM5,20H6V21H5zM6,20H7V21H6zM7,20H8V21H7zM8,20H9V21H8zM11,20H12V21H11zM13,20H14V21H13zM15,20H16V21H15zM17,20H18V21H17zM18,20H19V21H18zM19,20H20V21H19zM22,20H23V21H22zM24,20H25V21H24zM25,20H26V21H25zM26,20H27V21H26zM27,20H28V21H27zM6,21H7V22H6zM7,21H8V22H7zM14,21H15V22H14zM15,21H16V22H15zM17,21H18V22H17zM18,21H19V22H18zM19,21H20V22H19zM20,21H21V22H20zM21,21H22V22H21zM22,21H23V22H22zM23,21H24V22H23zM24,21H25V22H24zM25,21H26V22H25zM28,21H29V22H28zM3,22H4V23H3zM4,22H5V23H4zM8,22H9V23H8zM10,22H11V23H10zM14,22H15V23H14zM16,22H17V23H16zM17,22H18V23H17zM20,22H21V23H20zM21,22H22V23H21zM22,22H23V23H22zM23,22H24V23H23zM24,22H25V23H24zM25,22H26V23H25zM26,22H27V23H26zM27,22H28V23H27zM28,22H29V23H28zM10,23H11V24H10zM11,23H12V24H11zM12,23H13V24H12zM13,23H14V24H13zM14,23H15V24H14zM15,23H16V24H15zM16,23H17V24H16zM20,23H21V24H20zM21,23H22V24H21zM22,23H23V24H22zM26,23H27V24H26zM27,23H28V24H27zM29,23H30V24H29zM30,23H31V24H30zM2,24H3V25H2zM3,24H4V25H3zM4,24H5V25H4zM5,24H6V25H5zM6,24H7V25H6zM7,24H8V25H7zM8,24H9V25H8zM10,24H11V25H10zM11,24H12V25H11zM13,24H14V25H13zM14,24H15V25H14zM16,24H17V25H16zM18,24H19V25H18zM19,24H20V25H19zM21,24H22V25H21zM22,24H23V25H22zM24,24H25V25H24zM26,24H27V25H26zM28,24H29V25H28zM29,24H30V25H29zM2,25H3V26H2zM8,25H9V26H8zM13,25H14V26H13zM14,25H15V26H14zM15,25H16V26H15zM22,25H23V26H22zM26,25H27V26H26zM30,25H31V26H30zM2,26H3V27H2zM4,26H5V27H4zM5,26H6V27H5zM6,26H7V27H6zM8,26H9V27H8zM13,26H14V27H13zM14,26H15V27H14zM16,26H17V27H16zM17,26H18V27H17zM19,26H20V27H19zM22,26H23V27H22zM23,26H24V27H23zM24,26H25V27H24zM25,26H26V27H25zM26,26H27V27H26zM27,26H28V27H27zM28,26H29V27H28zM29,26H30V27H29zM2,27H3V28H2zM4,27H5V28H4zM5,27H6V28H5zM6,27H7V28H6zM8,27H9V28H8zM10,27H11V28H10zM11,27H12V28H11zM12,27H13V28H12zM14,27H15V28H14zM20,27H21V28H20zM21,27H22V28H21zM26,27H27V28H26zM27,27H28V28H27zM29,27H30V28H29zM2,28H3V29H2zM4,28H5V29H4zM5,28H6V29H5zM6,28H7V29H6zM8,28H9V29H8zM10,28H11V29H10zM12,28H13V29H12zM16,28H17V29H16zM18,28H19V29H18zM20,28H21V29H20zM22,28H23V29H22zM25,28H26V29H25zM27,28H28V29H27zM28,28H29V29H28zM30,28H31V29H30zM2,29H3V30H2zM8,29H9V30H8zM11,29H12V30H11zM12,29H13V30H12zM13,29H14V30H13zM14,29H15V30H14zM15,29H16V30H15zM18,29H19V30H18zM19,29H20V30H19zM20,29H21V30H20zM22,29H23V30H22zM24,29H25V30H24zM26,29H27V30H26zM27,29H28V30H27zM29,29H30V30H29zM2,30H3V31H2zM3,30H4V31H3zM4,30H5V31H4zM5,30H6V31H5zM6,30H7V31H6zM7,30H8V31H7zM8,30H9V31H8zM12,30H13V31H12zM14,30H15V31H14zM17,30H18V31H17zM20,30H21V31H20zM21,30H22V31H21zM22,30H23V31H22zM23,30H24V31H23zM24,30H25V31H24zM25,30H26V31H25zM29,30H30V31H29z" id="qr-path" fill="#000000" fill-opacity="1" fill-rule="nonzero" stroke="none"/></svg>